# xmcd CD database file
#
# Track frame offsets:
#	150
#	19494
#	32961
#	45828
#	62200
#	76664
#	87684
#	102707
#	116107
#	129979
#	141951
#	157363
#	173410
#	187412
#	204772
#	220098
#	233003
#	248543
#	260676
#	278649
#	295833
#
# Disc length: 4123 seconds
#
# Revision: 0
# Processed by: cddbd v1.5.2PL0 Copyright (c) Steve Scherf et al.
# Submitted via: CDex 1.50
#
DISCID=36101915
DTITLE=Varios - Grupero Máximo
DYEAR=2007
DGENRE=Grupero
TTITLE0=Superman Intro
TTITLE1=Escúchame
TTITLE2=Enfermo
TTITLE3=Basta
TTITLE4=A ti si puedo decirte
TTITLE5=Tu falso orgullo
TTITLE6=Tal vez
TTITLE7=Invisible
TTITLE8=La celda del loco
TTITLE9=Ahora que soy rico
TTITLE10=Cuando regreses
TTITLE11=El no eres tu
TTITLE12=Lágrimas del corazón
TTITLE13=Muévelo
TTITLE14=Speedy González
TTITLE15=Tu castigo
TTITLE16=Lágrimas de sangre
TTITLE17=Con tequila y sal
TTITLE18=Como olvidar
TTITLE19=Lágrimas del corazón
TTITLE20=Por amarte así
EXTD=YEAR: 2007
EXTT0=
EXTT1=
EXTT2=
EXTT3=
EXTT4=
EXTT5=
EXTT6=
EXTT7=
EXTT8=
EXTT9=
EXTT10=
EXTT11=
EXTT12=
EXTT13=
EXTT14=
EXTT15=
EXTT16=
EXTT17=
EXTT18=
EXTT19=
EXTT20=
PLAYORDER=
